<svg width="23" height="25" viewBox="0 0 23 25" fill="none" xmlns="http://www.w3.org/2000/svg">
<g id="mdi:alarm-clock">
<path id="Vector" d="M11.5 20.4999C9.7208 20.4999 8.01451 19.7624 6.75645 18.4496C5.49839 17.1369 4.79163 15.3564 4.79163 13.4999C4.79163 11.6433 5.49839 9.86287 6.75645 8.55012C8.01451 7.23736 9.7208 6.49986 11.5 6.49986C13.2791 6.49986 14.9854 7.23736 16.2435 8.55012C17.5015 9.86287 18.2083 11.6433 18.2083 13.4999C18.2083 15.3564 17.5015 17.1369 16.2435 18.4496C14.9854 19.7624 13.2791 20.4999 11.5 20.4999ZM11.5 4.49986C9.21247 4.49986 7.01866 5.44807 5.40116 7.1359C3.78366 8.82373 2.87496 11.1129 2.87496 13.4999C2.87496 15.8868 3.78366 18.176 5.40116 19.8638C7.01866 21.5517 9.21247 22.4999 11.5 22.4999C13.7875 22.4999 15.9813 21.5517 17.5988 19.8638C19.2163 18.176 20.125 15.8868 20.125 13.4999C20.125 11.1129 19.2163 8.82373 17.5988 7.1359C15.9813 5.44807 13.7875 4.49986 11.5 4.49986ZM11.9791 8.49986H10.5416V14.4999L15.0937 17.3499L15.8125 16.1199L11.9791 13.7499V8.49986ZM7.55163 3.88986L6.32496 2.35986L1.91663 6.20986L3.15288 7.73986L7.55163 3.88986ZM21.0833 6.21986L16.675 2.35986L15.4387 3.88986L19.847 7.74986L21.0833 6.21986Z" fill="white"/>
</g>
</svg>
